<?xml version="1.0" encoding="UTF-8" standalone="no"?>
<!DOCTYPE svg PUBLIC "-//W3C//DTD SVG 1.1//EN" "http://www.w3.org/Graphics/SVG/1.1/DTD/svg11.dtd">
<svg width="100%" height="100%" viewBox="0 0 532 1080" version="1.1" xmlns="http://www.w3.org/2000/svg" xmlns:xlink="http://www.w3.org/1999/xlink" xml:space="preserve" xmlns:serif="http://www.serif.com/" style="fill-rule:evenodd;clip-rule:evenodd;stroke-linecap:round;stroke-linejoin:round;stroke-miterlimit:1.5;">
    <g transform="matrix(1,0,0,1,-3630.1,-2478.5)">
        <g id="Artboard10" transform="matrix(0.491889,0,0,1,3630.1,2478.5)">
            <rect x="0" y="0" width="1080" height="1080" style="fill:none;"/>
            <clipPath id="_clip1">
                <rect x="0" y="0" width="1080" height="1080"/>
            </clipPath>
            <g clip-path="url(#_clip1)">
                <g id="Fries-Amsterdammertje" serif:id="Fries Amsterdammertje" transform="matrix(7.95471,0,0,3.91284,-1945.17,-544.665)">
                    <g id="Amsterdammertje">
                        <path d="M329.335,567.241L318.135,183.067C318.135,183.067 318.505,161.694 298.612,161.694C278.719,161.694 278.514,183.067 278.514,183.067L264.775,566.304C264.775,566.304 274.157,579.599 298.324,579.599C322.492,579.599 329.335,567.241 329.335,567.241Z" style="fill:rgb(178,72,98);"/>
                        <path d="M275.351,183.067C275.351,183.067 290.7,184.035 298.324,184.046C305.927,184.057 320.91,183.323 320.91,183.323L321.11,195.658C321.11,195.658 305.99,196.738 298.324,196.628C290.636,196.517 275.357,195.182 275.357,195.182L275.351,183.067Z" style="fill:rgb(178,72,98);"/>
                    </g>
                    <g id="Amsterdammertje1" serif:id="Amsterdammertje">
                        <path d="M329.335,567.241L318.135,183.067C318.135,183.067 318.505,161.694 298.612,161.694C278.719,161.694 278.514,183.067 278.514,183.067L264.775,566.304C264.775,566.304 274.157,579.599 298.324,579.599C322.492,579.599 329.335,567.241 329.335,567.241Z" style="fill:rgb(210,88,118);"/>
                        <path d="M275.351,183.067C275.351,183.067 290.7,184.035 298.324,184.046C305.927,184.057 320.91,183.323 320.91,183.323L321.11,195.658C321.11,195.658 305.99,196.738 298.324,196.628C290.636,196.517 275.357,195.182 275.357,195.182L275.351,183.067Z" style="fill:rgb(210,88,118);"/>
                    </g>
                    <g id="Pompebleden">
                        <g id="Pompebled" transform="matrix(0.0349599,0.0242029,-0.0242029,0.0349599,295.955,199.384)">
                            <path d="M225,475C92.023,457.189 -8.332,342.498 -8.333,208.333C-8.333,135.189 44.332,75 108.333,75C158.782,74.473 202.029,124.927 208.333,191.667C208.333,200.81 215.857,208.333 225,208.333C234.143,208.333 241.667,200.81 241.667,191.667C247.971,124.927 291.218,74.473 341.667,75C405.668,75 458.333,135.189 458.333,208.333C458.332,342.498 357.977,457.189 225,475Z" style="fill:rgb(178,72,98);fill-rule:nonzero;"/>
                        </g>
                        <g id="Pompebled1" serif:id="Pompebled" transform="matrix(0.0349599,0.0242029,-0.0242029,0.0349599,295.955,226.563)">
                            <path d="M225,475C92.023,457.189 -8.332,342.498 -8.333,208.333C-8.333,135.189 44.332,75 108.333,75C158.782,74.473 202.029,124.927 208.333,191.667C208.333,200.81 215.857,208.333 225,208.333C234.143,208.333 241.667,200.81 241.667,191.667C247.971,124.927 291.218,74.473 341.667,75C405.668,75 458.333,135.189 458.333,208.333C458.332,342.498 357.977,457.189 225,475Z" style="fill:rgb(178,72,98);fill-rule:nonzero;"/>
                        </g>
                        <g id="Pompebled2" serif:id="Pompebled" transform="matrix(0.0349599,0.0242029,-0.0242029,0.0349599,295.955,253.741)">
                            <path d="M225,475C92.023,457.189 -8.332,342.498 -8.333,208.333C-8.333,135.189 44.332,75 108.333,75C158.782,74.473 202.029,124.927 208.333,191.667C208.333,200.81 215.857,208.333 225,208.333C234.143,208.333 241.667,200.81 241.667,191.667C247.971,124.927 291.218,74.473 341.667,75C405.668,75 458.333,135.189 458.333,208.333C458.332,342.498 357.977,457.189 225,475Z" style="fill:rgb(178,72,98);fill-rule:nonzero;"/>
                        </g>
                    </g>
                </g>
                <g id="Bloemen" transform="matrix(2.03298,0,0,1,50.9202,0)">
                    <g transform="matrix(1,0,0,1,-2522.61,-2427.07)">
                        <path d="M2556.6,3134.15C2556.6,3134.15 2593.64,3063.94 2574.84,3027.06C2533.07,2945.12 2535.78,2921.02 2635.5,2870.09" style="fill:none;stroke:rgb(136,203,134);stroke-width:6px;"/>
                    </g>
                    <g transform="matrix(1,0,0,1,-2473.38,-2478.5)">
                        <path d="M2794.69,3558.5C2731.84,3324.26 2495.13,3308.4 2500.26,3205.05C2503.72,3135.23 2780.63,3035.37 2780.16,2934.39C2779.68,2832.49 2509.32,2778.64 2527.55,2707.32C2545.77,2635.99 2691.66,2737.34 2861.97,2631.08" style="fill:none;stroke:rgb(136,203,134);stroke-width:6px;"/>
                    </g>
                    <g transform="matrix(1,0,0,1,-2473.38,-2478.5)">
                        <path d="M2668.49,3367.41C2668.49,3367.41 2634.45,3336.19 2658.45,3282.29C2686.68,3218.89 2803.42,3228.43 2819.43,3164.38" style="fill:none;stroke:rgb(136,203,134);stroke-width:6px;"/>
                    </g>
                    <g transform="matrix(1,0,0,1,-1.59836,-0.799179)">
                        <g transform="matrix(1,0,0,1.14531,-2473.38,-2933.13)">
                            <path d="M2819.43,3164.38C2819.43,3164.38 2779.67,3143.51 2792.68,3130.85C2805.69,3118.19 2819.43,3164.38 2819.43,3164.38Z" style="fill:rgb(247,82,226);stroke:rgb(247,82,226);stroke-width:3.72px;"/>
                        </g>
                        <g transform="matrix(1,0,0,1.11238,-2473.38,-2828.92)">
                            <path d="M2819.43,3164.38C2819.43,3164.38 2802.93,3118.89 2819.43,3118.19C2835.93,3117.49 2819.43,3164.38 2819.43,3164.38Z" style="fill:rgb(247,82,226);stroke:rgb(247,82,226);stroke-width:3.78px;"/>
                        </g>
                        <g transform="matrix(0.852563,0,0,1.22193,-2057.69,-3175.57)">
                            <path d="M2819.43,3164.38C2819.43,3164.38 2839.45,3110.1 2850,3124.87C2860.55,3139.64 2819.43,3164.38 2819.43,3164.38Z" style="fill:rgb(247,82,226);stroke:rgb(247,82,226);stroke-width:3.8px;"/>
                        </g>
                        <g transform="matrix(1.00898,0,0,1.33272,-2498.71,-3526.15)">
                            <path d="M2819.43,3164.38C2819.43,3164.38 2855.63,3128.43 2861.25,3143.35C2866.88,3158.28 2819.43,3164.38 2819.43,3164.38Z" style="fill:rgb(247,82,226);stroke:rgb(247,82,226);stroke-width:3.38px;"/>
                        </g>
                        <g transform="matrix(0.973551,-0.22847,0.22847,0.973551,-3121.84,-1745.2)">
                            <path d="M2819.43,3164.38C2819.43,3164.38 2871.67,3153.7 2865.94,3168.47C2860.2,3183.24 2819.43,3164.38 2819.43,3164.38Z" style="fill:rgb(247,82,226);stroke:rgb(247,82,226);stroke-width:4px;"/>
                        </g>
                    </g>
                    <g transform="matrix(0.247422,-0.780205,0.780205,0.247422,-572.451,331.077)">
                        <g transform="matrix(1,0,0,1.14531,-2473.38,-2933.13)">
                            <path d="M2819.43,3164.38C2819.43,3164.38 2779.67,3143.51 2792.68,3130.85C2805.69,3118.19 2819.43,3164.38 2819.43,3164.38Z" style="fill:rgb(247,82,226);stroke:rgb(247,82,226);stroke-width:4.55px;"/>
                        </g>
                        <g transform="matrix(1,0,0,1.11238,-2473.38,-2828.92)">
                            <path d="M2819.43,3164.38C2819.43,3164.38 2802.93,3118.89 2819.43,3118.19C2835.93,3117.49 2819.43,3164.38 2819.43,3164.38Z" style="fill:rgb(247,82,226);stroke:rgb(247,82,226);stroke-width:4.62px;"/>
                        </g>
                        <g transform="matrix(0.852563,0,0,1.22193,-2057.69,-3175.57)">
                            <path d="M2819.43,3164.38C2819.43,3164.38 2839.45,3110.1 2850,3124.87C2860.55,3139.64 2819.43,3164.38 2819.43,3164.38Z" style="fill:rgb(247,82,226);stroke:rgb(247,82,226);stroke-width:4.64px;"/>
                        </g>
                        <g transform="matrix(1.00898,0,0,1.33272,-2498.71,-3526.15)">
                            <path d="M2819.43,3164.38C2819.43,3164.38 2855.63,3128.43 2861.25,3143.35C2866.88,3158.28 2819.43,3164.38 2819.43,3164.38Z" style="fill:rgb(247,82,226);stroke:rgb(247,82,226);stroke-width:4.13px;"/>
                        </g>
                        <g transform="matrix(0.973551,-0.22847,0.22847,0.973551,-3121.84,-1745.2)">
                            <path d="M2819.43,3164.38C2819.43,3164.38 2871.67,3153.7 2865.94,3168.47C2860.2,3183.24 2819.43,3164.38 2819.43,3164.38Z" style="fill:rgb(247,82,226);stroke:rgb(247,82,226);stroke-width:4.89px;"/>
                        </g>
                    </g>
                    <g transform="matrix(0.796634,0.611324,-0.592664,0.772318,248.453,-303.874)">
                        <g transform="matrix(1,0,0,1.14531,-2473.38,-2933.13)">
                            <path d="M2819.43,3164.38C2819.43,3164.38 2779.67,3143.51 2792.68,3130.85C2805.69,3118.19 2819.43,3164.38 2819.43,3164.38Z" style="fill:rgb(247,151,82);stroke:rgb(247,151,82);stroke-width:3.77px;"/>
                        </g>
                        <g transform="matrix(1,0,0,1.11238,-2473.38,-2828.92)">
                            <path d="M2819.43,3164.38C2819.43,3164.38 2802.93,3118.89 2819.43,3118.19C2835.93,3117.49 2819.43,3164.38 2819.43,3164.38Z" style="fill:rgb(247,151,82);stroke:rgb(247,151,82);stroke-width:3.83px;"/>
                        </g>
                        <g transform="matrix(0.852563,0,0,1.22193,-2057.69,-3175.57)">
                            <path d="M2819.43,3164.38C2819.43,3164.38 2839.45,3110.1 2850,3124.87C2860.55,3139.64 2819.43,3164.38 2819.43,3164.38Z" style="fill:rgb(247,151,82);stroke:rgb(247,151,82);stroke-width:3.86px;"/>
                        </g>
                        <g transform="matrix(1.00898,0,0,1.33272,-2498.71,-3526.15)">
                            <path d="M2819.43,3164.38C2819.43,3164.38 2855.63,3128.43 2861.25,3143.35C2866.88,3158.28 2819.43,3164.38 2819.43,3164.38Z" style="fill:rgb(247,151,82);stroke:rgb(247,151,82);stroke-width:3.44px;"/>
                        </g>
                        <g transform="matrix(0.973551,-0.22847,0.22847,0.973551,-3121.84,-1745.2)">
                            <path d="M2819.43,3164.38C2819.43,3164.38 2871.67,3153.7 2865.94,3168.47C2860.2,3183.24 2819.43,3164.38 2819.43,3164.38Z" style="fill:rgb(247,151,82);stroke:rgb(247,151,82);stroke-width:4.02px;"/>
                        </g>
                    </g>
                    <g transform="matrix(0.379105,-0.803017,0.803017,0.379105,-442.515,953.047)">
                        <g transform="matrix(1,0,0,1.14531,-2473.38,-2933.13)">
                            <path d="M2819.43,3164.38C2819.43,3164.38 2779.67,3143.51 2792.68,3130.85C2805.69,3118.19 2819.43,3164.38 2819.43,3164.38Z" style="fill:rgb(247,151,82);stroke:rgb(247,151,82);stroke-width:4.19px;"/>
                        </g>
                        <g transform="matrix(1,0,0,1.11238,-2473.38,-2828.92)">
                            <path d="M2819.43,3164.38C2819.43,3164.38 2802.93,3118.89 2819.43,3118.19C2835.93,3117.49 2819.43,3164.38 2819.43,3164.38Z" style="fill:rgb(247,151,82);stroke:rgb(247,151,82);stroke-width:4.26px;"/>
                        </g>
                        <g transform="matrix(0.852563,0,0,1.22193,-2057.69,-3175.57)">
                            <path d="M2819.43,3164.38C2819.43,3164.38 2839.45,3110.1 2850,3124.87C2860.55,3139.64 2819.43,3164.38 2819.43,3164.38Z" style="fill:rgb(247,151,82);stroke:rgb(247,151,82);stroke-width:4.28px;"/>
                        </g>
                        <g transform="matrix(1.00898,0,0,1.33272,-2498.71,-3526.15)">
                            <path d="M2819.43,3164.38C2819.43,3164.38 2855.63,3128.43 2861.25,3143.35C2866.88,3158.28 2819.43,3164.38 2819.43,3164.38Z" style="fill:rgb(247,151,82);stroke:rgb(247,151,82);stroke-width:3.81px;"/>
                        </g>
                        <g transform="matrix(0.973551,-0.22847,0.22847,0.973551,-3121.84,-1745.2)">
                            <path d="M2819.43,3164.38C2819.43,3164.38 2871.67,3153.7 2865.94,3168.47C2860.2,3183.24 2819.43,3164.38 2819.43,3164.38Z" style="fill:rgb(247,151,82);stroke:rgb(247,151,82);stroke-width:4.5px;"/>
                        </g>
                    </g>
                    <g transform="matrix(0.570785,0.302815,-0.302815,0.570785,313.304,-63.1427)">
                        <g transform="matrix(1,0,0,1.14531,-2473.38,-2933.13)">
                            <path d="M2819.43,3164.38C2819.43,3164.38 2779.67,3143.51 2792.68,3130.85C2805.69,3118.19 2819.43,3164.38 2819.43,3164.38Z" style="fill:rgb(121,111,255);stroke:rgb(121,111,255);stroke-width:5.76px;"/>
                        </g>
                        <g transform="matrix(1,0,0,1.11238,-2473.38,-2828.92)">
                            <path d="M2819.43,3164.38C2819.43,3164.38 2802.93,3118.89 2819.43,3118.19C2835.93,3117.49 2819.43,3164.38 2819.43,3164.38Z" style="fill:rgb(121,111,255);stroke:rgb(121,111,255);stroke-width:5.85px;"/>
                        </g>
                        <g transform="matrix(0.852563,0,0,1.22193,-2057.69,-3175.57)">
                            <path d="M2819.43,3164.38C2819.43,3164.38 2839.45,3110.1 2850,3124.87C2860.55,3139.64 2819.43,3164.38 2819.43,3164.38Z" style="fill:rgb(121,111,255);stroke:rgb(121,111,255);stroke-width:5.88px;"/>
                        </g>
                        <g transform="matrix(1.00898,0,0,1.33272,-2498.71,-3526.15)">
                            <path d="M2819.43,3164.38C2819.43,3164.38 2855.63,3128.43 2861.25,3143.35C2866.88,3158.28 2819.43,3164.38 2819.43,3164.38Z" style="fill:rgb(121,111,255);stroke:rgb(121,111,255);stroke-width:5.24px;"/>
                        </g>
                        <g transform="matrix(0.973551,-0.22847,0.22847,0.973551,-3121.84,-1745.2)">
                            <path d="M2819.43,3164.38C2819.43,3164.38 2871.67,3153.7 2865.94,3168.47C2860.2,3183.24 2819.43,3164.38 2819.43,3164.38Z" style="fill:rgb(121,111,255);stroke:rgb(121,111,255);stroke-width:6.19px;"/>
                        </g>
                    </g>
                    <g transform="matrix(0.811057,0.492455,-0.492455,0.811057,112.965,-126.696)">
                        <g transform="matrix(1,0,0,1.14531,-2473.38,-2933.13)">
                            <path d="M2819.43,3164.38C2819.43,3164.38 2779.67,3143.51 2792.68,3130.85C2805.69,3118.19 2819.43,3164.38 2819.43,3164.38Z" style="fill:rgb(121,111,255);stroke:rgb(121,111,255);stroke-width:3.92px;"/>
                        </g>
                        <g transform="matrix(1,0,0,1.11238,-2473.38,-2828.92)">
                            <path d="M2819.43,3164.38C2819.43,3164.38 2802.93,3118.89 2819.43,3118.19C2835.93,3117.49 2819.43,3164.38 2819.43,3164.38Z" style="fill:rgb(121,111,255);stroke:rgb(121,111,255);stroke-width:3.99px;"/>
                        </g>
                        <g transform="matrix(0.852563,0,0,1.22193,-2057.69,-3175.57)">
                            <path d="M2819.43,3164.38C2819.43,3164.38 2839.45,3110.1 2850,3124.87C2860.55,3139.64 2819.43,3164.38 2819.43,3164.38Z" style="fill:rgb(121,111,255);stroke:rgb(121,111,255);stroke-width:4px;"/>
                        </g>
                        <g transform="matrix(1.00898,0,0,1.33272,-2498.71,-3526.15)">
                            <path d="M2819.43,3164.38C2819.43,3164.38 2855.63,3128.43 2861.25,3143.35C2866.88,3158.28 2819.43,3164.38 2819.43,3164.38Z" style="fill:rgb(121,111,255);stroke:rgb(121,111,255);stroke-width:3.57px;"/>
                        </g>
                        <g transform="matrix(0.973551,-0.22847,0.22847,0.973551,-3121.84,-1745.2)">
                            <path d="M2819.43,3164.38C2819.43,3164.38 2871.67,3153.7 2865.94,3168.47C2860.2,3183.24 2819.43,3164.38 2819.43,3164.38Z" style="fill:rgb(121,111,255);stroke:rgb(121,111,255);stroke-width:4.22px;"/>
                        </g>
                    </g>
                    <g transform="matrix(1.69393,0.995453,-0.995453,1.69393,492.02,-1365.03)">
                        <g transform="matrix(1,0,0,1.14531,-2473.38,-2933.13)">
                            <path d="M2819.43,3164.38C2819.43,3164.38 2779.67,3143.51 2792.68,3130.85C2805.69,3118.19 2819.43,3164.38 2819.43,3164.38Z" style="fill:rgb(215,109,255);stroke:rgb(215,109,255);stroke-width:1.89px;"/>
                        </g>
                        <g transform="matrix(1,0,0,1.11238,-2473.38,-2828.92)">
                            <path d="M2819.43,3164.38C2819.43,3164.38 2802.93,3118.89 2819.43,3118.19C2835.93,3117.49 2819.43,3164.38 2819.43,3164.38Z" style="fill:rgb(215,109,255);stroke:rgb(215,109,255);stroke-width:1.92px;"/>
                        </g>
                        <g transform="matrix(0.852563,0,0,1.22193,-2057.69,-3175.57)">
                            <path d="M2819.43,3164.38C2819.43,3164.38 2839.45,3110.1 2850,3124.87C2860.55,3139.64 2819.43,3164.38 2819.43,3164.38Z" style="fill:rgb(215,109,255);stroke:rgb(215,109,255);stroke-width:1.93px;"/>
                        </g>
                        <g transform="matrix(1.00898,0,0,1.33272,-2498.71,-3526.15)">
                            <path d="M2819.43,3164.38C2819.43,3164.38 2855.63,3128.43 2861.25,3143.35C2866.88,3158.28 2819.43,3164.38 2819.43,3164.38Z" style="fill:rgb(215,109,255);stroke:rgb(215,109,255);stroke-width:1.72px;"/>
                        </g>
                        <g transform="matrix(0.973551,-0.22847,0.22847,0.973551,-3121.84,-1745.2)">
                            <path d="M2819.43,3164.38C2819.43,3164.38 2871.67,3153.7 2865.94,3168.47C2860.2,3183.24 2819.43,3164.38 2819.43,3164.38Z" style="fill:rgb(215,109,255);stroke:rgb(215,109,255);stroke-width:2.04px;"/>
                        </g>
                    </g>
                    <g transform="matrix(0.857576,-0.544224,0.544224,0.857576,-576.022,413.006)">
                        <g transform="matrix(1,0,0,1.14531,-2473.38,-2933.13)">
                            <path d="M2819.43,3164.38C2819.43,3164.38 2779.67,3143.51 2792.68,3130.85C2805.69,3118.19 2819.43,3164.38 2819.43,3164.38Z" style="fill:rgb(215,109,255);stroke:rgb(215,109,255);stroke-width:3.66px;"/>
                        </g>
                        <g transform="matrix(1,0,0,1.11238,-2473.38,-2828.92)">
                            <path d="M2819.43,3164.38C2819.43,3164.38 2802.93,3118.89 2819.43,3118.19C2835.93,3117.49 2819.43,3164.38 2819.43,3164.38Z" style="fill:rgb(215,109,255);stroke:rgb(215,109,255);stroke-width:3.72px;"/>
                        </g>
                        <g transform="matrix(0.852563,0,0,1.22193,-2057.69,-3175.57)">
                            <path d="M2819.43,3164.38C2819.43,3164.38 2839.45,3110.1 2850,3124.87C2860.55,3139.64 2819.43,3164.38 2819.43,3164.38Z" style="fill:rgb(215,109,255);stroke:rgb(215,109,255);stroke-width:3.74px;"/>
                        </g>
                        <g transform="matrix(1.00898,0,0,1.33272,-2498.71,-3526.15)">
                            <path d="M2819.43,3164.38C2819.43,3164.38 2855.63,3128.43 2861.25,3143.35C2866.88,3158.28 2819.43,3164.38 2819.43,3164.38Z" style="fill:rgb(215,109,255);stroke:rgb(215,109,255);stroke-width:3.33px;"/>
                        </g>
                        <g transform="matrix(0.973551,-0.22847,0.22847,0.973551,-3121.84,-1745.2)">
                            <path d="M2819.43,3164.38C2819.43,3164.38 2871.67,3153.7 2865.94,3168.47C2860.2,3183.24 2819.43,3164.38 2819.43,3164.38Z" style="fill:rgb(215,109,255);stroke:rgb(215,109,255);stroke-width:3.94px;"/>
                        </g>
                    </g>
                    <g transform="matrix(0.559212,0.222137,-0.277656,0.698975,-389.748,-2096.8)">
                        <path d="M2689.06,3249.44C2689.06,3249.44 2672.29,3181.48 2695.65,3183.07C2719.01,3184.67 2689.06,3249.44 2689.06,3249.44Z" style="fill:none;stroke:rgb(136,203,134);stroke-width:5.87px;"/>
                    </g>
                    <g transform="matrix(1,0,0,1,-2487.18,-2471.15)">
                        <path d="M2717.41,3232.98C2717.41,3232.98 2756.7,3224.52 2753.52,3238.04C2750.33,3251.56 2717.41,3232.98 2717.41,3232.98Z" style="fill:none;stroke:rgb(136,203,134);stroke-width:4px;"/>
                    </g>
                    <g transform="matrix(1,0,0,1,-2500.75,-2482.31)">
                        <path d="M2527.55,3222.36C2527.55,3222.36 2500.27,3174.05 2492.31,3191.57C2484.34,3209.09 2527.55,3222.36 2527.55,3222.36Z" style="fill:none;stroke:rgb(136,203,134);stroke-width:4px;"/>
                    </g>
                    <g transform="matrix(0.951923,0.306337,-0.306337,0.951923,-1423.15,-3135)">
                        <path d="M2520.44,3069.99C2520.44,3069.99 2509.69,3025.92 2527.55,3027.52C2545.4,3029.11 2520.44,3069.99 2520.44,3069.99Z" style="fill:none;stroke:rgb(136,203,134);stroke-width:4px;"/>
                    </g>
                    <g transform="matrix(1,0,0,1,-2489.94,-2512.98)">
                        <path d="M2525.61,3078.48C2525.61,3078.48 2500.96,3045.39 2491.33,3059.55C2481.69,3073.7 2525.61,3078.48 2525.61,3078.48Z" style="fill:none;stroke:rgb(136,203,134);stroke-width:4px;"/>
                    </g>
                    <g transform="matrix(1,0,0,1,-2479.54,-2481.04)">
                        <path d="M2525.61,2965.4C2525.61,2965.4 2518.32,2914.96 2533.98,2914.96C2549.64,2914.96 2525.61,2965.4 2525.61,2965.4Z" style="fill:none;stroke:rgb(136,203,134);stroke-width:4px;"/>
                    </g>
                    <g transform="matrix(1,0,0,0.800196,-2473.38,-1927.14)">
                        <path d="M2552.3,2751.44C2552.3,2751.44 2509.71,2719.58 2505.52,2746.13C2501.33,2772.68 2552.3,2751.44 2552.3,2751.44Z" style="fill:none;stroke:rgb(136,203,134);stroke-width:4.42px;"/>
                    </g>
                    <g transform="matrix(0.990555,0.137119,-0.137119,0.990555,-2056.6,-2775.19)">
                        <path d="M2706.26,2630.39C2706.26,2630.39 2714.76,2572.52 2736.53,2579.42C2758.29,2586.33 2706.26,2630.39 2706.26,2630.39Z" style="fill:none;stroke:rgb(136,203,134);stroke-width:4px;"/>
                    </g>
                    <g transform="matrix(1,0,0,1,-2463.94,-2418.44)">
                        <path d="M2758.83,2612.87C2758.83,2612.87 2817.23,2596.94 2810.32,2615.53C2803.42,2634.11 2758.83,2612.87 2758.83,2612.87Z" style="fill:none;stroke:rgb(136,203,134);stroke-width:4px;"/>
                    </g>
                    <g transform="matrix(0.931704,-0.363219,0.363219,0.931704,-3312.7,-1306.14)">
                        <path d="M2683.97,2829.48C2683.97,2829.48 2656.36,2781.7 2678.66,2777.99C2700.96,2774.27 2683.97,2829.48 2683.97,2829.48Z" style="fill:none;stroke:rgb(136,203,134);stroke-width:4px;"/>
                    </g>
                    <g transform="matrix(1,0,0,1,-2470.73,-2479.05)">
                        <path d="M2765.2,2976.55C2765.2,2976.55 2803.49,2934.08 2810.89,2954.25C2818.29,2974.42 2765.2,2976.55 2765.2,2976.55Z" style="fill:none;stroke:rgb(136,203,134);stroke-width:4px;"/>
                    </g>
                    <g transform="matrix(1,0,0,1,-2474.2,-2479.97)">
                        <path d="M2757.76,2989.82C2757.76,2989.82 2726.97,2943.1 2746.61,2935.14C2766.26,2927.17 2757.76,2989.82 2757.76,2989.82Z" style="fill:none;stroke:rgb(136,203,134);stroke-width:4px;"/>
                    </g>
                    <g transform="matrix(1,0,0,1,-2473.38,-2478.5)">
                        <path d="M2769.87,3490.28C2769.87,3490.28 2761.81,3443.44 2778.79,3445C2795.77,3446.56 2769.87,3490.28 2769.87,3490.28Z" style="fill:none;stroke:rgb(136,203,134);stroke-width:4px;"/>
                    </g>
                    <g transform="matrix(1,0,0,1,-2473.38,-2478.5)">
                        <path d="M2791.21,3543.99C2791.21,3543.99 2743.44,3482.96 2737.25,3507.73C2731.06,3532.49 2791.21,3543.99 2791.21,3543.99Z" style="fill:none;stroke:rgb(136,203,134);stroke-width:4px;"/>
                    </g>
                    <g transform="matrix(1,0,0,1,-2477.79,-2477.03)">
                        <path d="M2636.42,3337.9C2636.42,3337.9 2594.85,3311.37 2594.85,3332.6C2594.85,3353.83 2636.42,3337.9 2636.42,3337.9Z" style="fill:none;stroke:rgb(136,203,134);stroke-width:4px;"/>
                    </g>
                    <g transform="matrix(1,0,0,1,-2473.38,-2478.5)">
                        <path d="M2625.81,3108.82C2625.81,3108.82 2610.77,3031.87 2639.96,3033.64C2669.15,3035.41 2625.81,3108.82 2625.81,3108.82Z" style="fill:none;stroke:rgb(136,203,134);stroke-width:4px;"/>
                    </g>
                    <g transform="matrix(1,0,0,1,-2473.38,-2478.5)">
                        <path d="M2652.34,3088.48C2652.34,3088.48 2730.18,3052.21 2722.22,3083.17C2714.26,3114.13 2652.34,3088.48 2652.34,3088.48Z" style="fill:none;stroke:rgb(136,203,134);stroke-width:4px;"/>
                    </g>
                </g>
                <g id="cutout-Fries-Amsterdammertje" serif:id="cutout Fries Amsterdammertje" transform="matrix(7.95471,0,0,3.91284,-1945.17,-544.665)">
                    <clipPath id="_clip2">
                        <rect x="272.353" y="269.952" width="51.569" height="47.574"/>
                    </clipPath>
                    <g clip-path="url(#_clip2)">
                        <g id="Amsterdammertje2" serif:id="Amsterdammertje">
                            <path d="M329.335,567.241L318.135,183.067C318.135,183.067 318.505,161.694 298.612,161.694C278.719,161.694 278.514,183.067 278.514,183.067L264.775,566.304C264.775,566.304 274.157,579.599 298.324,579.599C322.492,579.599 329.335,567.241 329.335,567.241Z" style="fill:rgb(210,88,118);"/>
                            <path d="M275.351,183.067C275.351,183.067 290.7,184.035 298.324,184.046C305.927,184.057 320.91,183.323 320.91,183.323L321.11,195.658C321.11,195.658 305.99,196.738 298.324,196.628C290.636,196.517 275.357,195.182 275.357,195.182L275.351,183.067Z" style="fill:rgb(210,88,118);"/>
                        </g>
                        <g id="Pompebleden1" serif:id="Pompebleden">
                            <g id="Pompebled3" serif:id="Pompebled" transform="matrix(0.0349599,0.0242029,-0.0242029,0.0349599,295.955,199.384)">
                                <path d="M225,475C92.023,457.189 -8.332,342.498 -8.333,208.333C-8.333,135.189 44.332,75 108.333,75C158.782,74.473 202.029,124.927 208.333,191.667C208.333,200.81 215.857,208.333 225,208.333C234.143,208.333 241.667,200.81 241.667,191.667C247.971,124.927 291.218,74.473 341.667,75C405.668,75 458.333,135.189 458.333,208.333C458.332,342.498 357.977,457.189 225,475Z" style="fill:rgb(178,72,98);fill-rule:nonzero;"/>
                            </g>
                            <g id="Pompebled4" serif:id="Pompebled" transform="matrix(0.0349599,0.0242029,-0.0242029,0.0349599,295.955,226.563)">
                                <path d="M225,475C92.023,457.189 -8.332,342.498 -8.333,208.333C-8.333,135.189 44.332,75 108.333,75C158.782,74.473 202.029,124.927 208.333,191.667C208.333,200.81 215.857,208.333 225,208.333C234.143,208.333 241.667,200.81 241.667,191.667C247.971,124.927 291.218,74.473 341.667,75C405.668,75 458.333,135.189 458.333,208.333C458.332,342.498 357.977,457.189 225,475Z" style="fill:rgb(178,72,98);fill-rule:nonzero;"/>
                            </g>
                            <g id="Pompebled5" serif:id="Pompebled" transform="matrix(0.0349599,0.0242029,-0.0242029,0.0349599,295.955,253.741)">
                                <path d="M225,475C92.023,457.189 -8.332,342.498 -8.333,208.333C-8.333,135.189 44.332,75 108.333,75C158.782,74.473 202.029,124.927 208.333,191.667C208.333,200.81 215.857,208.333 225,208.333C234.143,208.333 241.667,200.81 241.667,191.667C247.971,124.927 291.218,74.473 341.667,75C405.668,75 458.333,135.189 458.333,208.333C458.332,342.498 357.977,457.189 225,475Z" style="fill:rgb(178,72,98);fill-rule:nonzero;"/>
                            </g>
                        </g>
                    </g>
                </g>
                <g id="cutout-2-Fries-Amsterdammertje" serif:id="cutout 2 Fries Amsterdammertje" transform="matrix(7.95471,0,0,3.91284,-1945.17,-544.665)">
                    <clipPath id="_clip3">
                        <rect x="273.436" y="161.694" width="50.487" height="37.921"/>
                    </clipPath>
                    <g clip-path="url(#_clip3)">
                        <g id="Amsterdammertje3" serif:id="Amsterdammertje">
                            <path d="M329.335,567.241L318.135,183.067C318.135,183.067 318.505,161.694 298.612,161.694C278.719,161.694 278.514,183.067 278.514,183.067L264.775,566.304C264.775,566.304 274.157,579.599 298.324,579.599C322.492,579.599 329.335,567.241 329.335,567.241Z" style="fill:rgb(210,88,118);"/>
                            <path d="M275.351,183.067C275.351,183.067 290.7,184.035 298.324,184.046C305.927,184.057 320.91,183.323 320.91,183.323L321.11,195.658C321.11,195.658 305.99,196.738 298.324,196.628C290.636,196.517 275.357,195.182 275.357,195.182L275.351,183.067Z" style="fill:rgb(210,88,118);"/>
                        </g>
                        <g id="Pompebleden2" serif:id="Pompebleden">
                            <g id="Pompebled6" serif:id="Pompebled" transform="matrix(0.0349599,0.0242029,-0.0242029,0.0349599,295.955,199.384)">
                                <path d="M225,475C92.023,457.189 -8.332,342.498 -8.333,208.333C-8.333,135.189 44.332,75 108.333,75C158.782,74.473 202.029,124.927 208.333,191.667C208.333,200.81 215.857,208.333 225,208.333C234.143,208.333 241.667,200.81 241.667,191.667C247.971,124.927 291.218,74.473 341.667,75C405.668,75 458.333,135.189 458.333,208.333C458.332,342.498 357.977,457.189 225,475Z" style="fill:rgb(0,7,84);fill-rule:nonzero;stroke:rgb(0,7,84);stroke-width:6.01px;stroke-linecap:butt;stroke-miterlimit:2;"/>
                            </g>
                            <g id="Pompebled7" serif:id="Pompebled" transform="matrix(0.0349599,0.0242029,-0.0242029,0.0349599,295.955,226.563)">
                                <path d="M225,475C92.023,457.189 -8.332,342.498 -8.333,208.333C-8.333,135.189 44.332,75 108.333,75C158.782,74.473 202.029,124.927 208.333,191.667C208.333,200.81 215.857,208.333 225,208.333C234.143,208.333 241.667,200.81 241.667,191.667C247.971,124.927 291.218,74.473 341.667,75C405.668,75 458.333,135.189 458.333,208.333C458.332,342.498 357.977,457.189 225,475Z" style="fill:rgb(0,7,84);fill-rule:nonzero;stroke:rgb(0,7,84);stroke-width:6.01px;stroke-linecap:butt;stroke-miterlimit:2;"/>
                            </g>
                            <g id="Pompebled8" serif:id="Pompebled" transform="matrix(0.0349599,0.0242029,-0.0242029,0.0349599,295.955,253.741)">
                                <path d="M225,475C92.023,457.189 -8.332,342.498 -8.333,208.333C-8.333,135.189 44.332,75 108.333,75C158.782,74.473 202.029,124.927 208.333,191.667C208.333,200.81 215.857,208.333 225,208.333C234.143,208.333 241.667,200.81 241.667,191.667C247.971,124.927 291.218,74.473 341.667,75C405.668,75 458.333,135.189 458.333,208.333C458.332,342.498 357.977,457.189 225,475Z" style="fill:rgb(0,7,84);fill-rule:nonzero;stroke:rgb(0,7,84);stroke-width:6.01px;stroke-linecap:butt;stroke-miterlimit:2;"/>
                            </g>
                        </g>
                    </g>
                </g>
                <g transform="matrix(6.90099,0,0,6.44929,-1629.8,-1009.2)">
                    <path d="M275.351,183.067C275.351,183.067 290.7,184.035 298.324,184.046C305.927,184.057 320.997,183.185 320.997,183.185" style="fill:none;stroke:rgb(178,72,98);stroke-width:0.39px;stroke-linecap:butt;"/>
                </g>
                <g transform="matrix(7.0146,0,0,3.80151,-1664.67,-521.197)">
                    <path d="M321.215,195.658C321.215,195.658 305.99,196.738 298.324,196.628C290.636,196.517 275.348,195.219 275.348,195.219" style="fill:none;stroke:rgb(178,72,98);stroke-width:0.55px;stroke-linecap:butt;"/>
                </g>
            </g>
        </g>
    </g>
</svg>
